<svg width="16" height="16" viewBox="0 0 16 16" fill="none" xmlns="http://www.w3.org/2000/svg">
<path d="M11.2923 0.706704C10.2882 0.252717 9.17361 0 8 0C3.58172 0 0 3.58172 0 8C0 12.4183 3.58172 16 8 16C12.4183 16 16 12.4183 16 8C16 6.82639 15.7473 5.7118 15.2933 4.70769C14.9017 4.89507 14.4631 5 14 5C13.5376 5 13.0997 4.8954 12.7086 4.70859L13.7 5.7L7 12.4L3.3 8.7L4.7 7.3L7 9.6L12.1999 4.40013C11.4713 3.8528 11 2.98143 11 2C11 1.5369 11.1049 1.09831 11.2923 0.706704Z" fill="#199A27"/>
<path d="M12.1772 1.17582C12.0634 1.42714 12 1.70617 12 2C12 3.10457 12.8954 4 14 4C14.2938 4 14.5729 3.93664 14.8242 3.82283C14.1633 2.7455 13.2545 1.83668 12.1772 1.17582Z" fill="#199A27"/>
<path d="M16 2C16 3.10457 15.1046 4 14 4C12.8954 4 12 3.10457 12 2C12 0.89543 12.8954 0 14 0C15.1046 0 16 0.89543 16 2Z" fill="#FF5757"/>
</svg>
