<svg width="16" height="16" viewBox="0 0 16 16" fill="none" xmlns="http://www.w3.org/2000/svg">
<path d="M8 0C12.4183 0 16 3.58172 16 8C16 12.4183 12.4183 16 8 16C3.58172 16 0 12.4183 0 8C0 3.58172 3.58172 0 8 0ZM5 9C4.51 8.719 4 9.447 4 10C4 10.553 4.666 10.781 5 11C5 11 5.979 12 7.969 12C10.011 12 11 11 11 11C11.459 10.75 12 10.553 12 10C12 9.447 11.553 8.781 11 9C11 9 8.969 10 8 10C7.05865 10 5.33534 9.16635 5.04275 9.02137L5 9ZM5 5C4.447 5 4 5.447 4 6C4 6.553 4.447 7 5 7C5.553 7 6 6.553 6 6C6 5.447 5.553 5 5 5ZM11 5C10.447 5 10 5.447 10 6C10 6.553 10.447 7 11 7C11.553 7 12 6.553 12 6C12 5.447 11.553 5 11 5Z" fill="#FFB938"/>
</svg>
