<svg width="16" height="16" viewBox="0 0 16 16" fill="none" xmlns="http://www.w3.org/2000/svg">
<path d="M8 0C12.4183 0 16 3.58172 16 8C16 12.4183 12.4183 16 8 16C3.58172 16 0 12.4183 0 8C0 3.58172 3.58172 0 8 0ZM7.969 8.93764C5.979 8.93764 5 9.93764 5 9.93764C4.666 10.1566 4 10.3846 4 10.9376C4 11.4906 4.51 12.2186 5 11.9376C5 11.9376 6.969 10.9376 8 10.9376C8.969 10.9376 11 11.9376 11 11.9376C11.553 12.1566 12 11.4906 12 10.9376C12 10.3846 11.459 10.1876 11 9.93764C11 9.93764 10.011 8.93764 7.969 8.93764ZM5 5C4.447 5 4 5.447 4 6C4 6.553 4.447 7 5 7C5.553 7 6 6.553 6 6C6 5.447 5.553 5 5 5ZM11 5C10.447 5 10 5.447 10 6C10 6.553 10.447 7 11 7C11.553 7 12 6.553 12 6C12 5.447 11.553 5 11 5Z" fill="#FF5757"/>
</svg>
